# xmcd
#
# Track frame offsets:
#	150
#	20867
#	41672
#	65757
#	83623
#	105349
#	129779
#	164545
#	189766
#	204915
#	224739
#	246653
#	276578
#
# Disc length: 3909 seconds
#
# Revision: 0
# Processed by: cddbd v1.5.1PL0 Copyright (c) Steve Scherf et al.
# Submitted via: dBpowerAMP V4.0
#
DISCID=c00f430d
DTITLE=Billy Paul - The Best Of...
DYEAR=1900
DGENRE=Blues
TTITLE0=All I Need Is You
TTITLE1=Brown Baby
TTITLE2=Compared To What
TTITLE3=Everyday People
TTITLE4=Me And Ms. Jones
TTITLE5=America
TTITLE6=Let's Stay Together
TTITLE7=Only Strong Survive
TTITLE8=Without You
TTITLE9=People Power
TTITLE10=The Whole Town's Talking
TTITLE11=Your Song
TTITLE12=You're My Sweetness
EXTD=
EXTT0=
EXTT1=
EXTT2=
EXTT3=
EXTT4=
EXTT5=
EXTT6=
EXTT7=
EXTT8=
EXTT9=
EXTT10=
EXTT11=
EXTT12=
PLAYORDER=
